<svg width="1440" height="1024" viewBox="0 0 1440 1024" fill="none" xmlns="http://www.w3.org/2000/svg">
<g clip-path="url(#clip0_27_170)">
<rect width="1440" height="1024" fill="#EFEFEF"/>
<path d="M2103.33 77.5925C1741.54 132.321 1174.31 243.079 1462.88 592.713C1830.11 1037.65 2727.49 921.086 2328.93 1264.5" stroke="white" stroke-width="8.2894"/>
<path d="M1975.77 56.3892C1613.97 111.118 1046.75 221.876 1335.32 571.509C1702.54 1016.44 2599.93 899.882 2201.37 1243.3" stroke="white" stroke-width="8.2894"/>
<path d="M1848.26 34.8298C1486.47 89.5587 919.241 200.316 1207.81 549.95C1575.04 994.883 2472.42 878.323 2073.86 1221.74" stroke="white" stroke-width="8.2894"/>
<path d="M1720.6 14.2343C1358.81 68.9631 791.577 179.721 1080.15 529.354C1447.37 974.288 2344.76 857.728 1946.2 1201.14" stroke="white" stroke-width="8.2894"/>
<path d="M1592.64 -4.43091C1230.84 50.298 663.616 161.056 952.187 510.689C1319.41 955.622 2216.8 839.062 1818.24 1182.48" stroke="white" stroke-width="8.2894"/>
<path d="M1464.33 -20.4768C1102.53 34.2521 535.301 145.01 823.872 494.643C1191.1 939.577 2088.48 823.017 1689.93 1166.43" stroke="white" stroke-width="8.2894"/>
<path d="M1332.54 -30C970.742 24.7289 403.514 135.486 692.084 485.12C1059.31 930.053 1956.7 813.493 1558.14 1156.91" stroke="white" stroke-width="8.2894"/>
<path d="M1205.91 -43.1367C844.11 11.5922 276.881 122.35 565.452 471.983C932.679 916.917 1830.07 800.357 1431.51 1143.77" stroke="white" stroke-width="8.2894"/>
<path d="M1076.81 -50.6025C715.011 4.12635 147.782 114.884 436.353 464.517C803.58 909.451 1700.97 792.891 1302.41 1136.3" stroke="white" stroke-width="8.2894"/>
<path d="M947.614 -56.2032C585.818 -1.47436 18.5894 109.283 307.16 458.917C674.387 903.85 1571.77 787.29 1173.21 1130.7" stroke="white" stroke-width="8.2894"/>
<path d="M818.345 -59.6826C456.55 -4.95373 -110.679 105.804 177.892 455.437C545.118 900.371 1442.5 783.811 1043.95 1127.22" stroke="white" stroke-width="8.2894"/>
<path d="M689.035 -60.72C327.239 -5.99108 -239.989 104.767 48.5816 454.4C415.808 899.333 1313.19 782.773 914.635 1126.19" stroke="white" stroke-width="8.2894"/>
<path d="M559.733 -58.9059C197.937 -4.17699 -369.291 106.581 -80.7204 456.214C286.506 901.147 1183.89 784.587 785.333 1128" stroke="white" stroke-width="8.2894"/>
<path d="M430.523 -53.7014C68.7274 1.02747 -498.501 111.785 -209.931 461.419C157.296 906.352 1054.68 789.792 656.123 1133.21" stroke="white" stroke-width="8.2894"/>
<path d="M301.544 -44.3782C-60.2512 10.3507 -627.48 121.108 -338.909 470.742C28.3175 915.675 925.704 799.115 527.144 1142.53" stroke="white" stroke-width="8.2894"/>
<path d="M173.039 -29.9132C-188.756 24.8157 -755.985 135.573 -467.414 485.207C-100.187 930.14 797.199 813.58 398.639 1156.99" stroke="white" stroke-width="8.2894"/>
<path d="M45.4472 -8.83081C-316.348 45.8981 -883.577 156.656 -595.006 506.289C-227.78 951.223 669.607 834.663 271.047 1178.08" stroke="white" stroke-width="8.2894"/>
<path d="M-80.35 20.9761C-442.146 75.705 -1009.37 186.463 -720.803 536.096C-353.577 981.029 543.81 864.469 145.25 1207.88" stroke="white" stroke-width="8.2894"/>
<path d="M-202.462 60.7346C-564.258 115.464 -1131.49 226.221 -842.916 575.855C-475.689 1020.79 421.698 904.228 23.1379 1247.64" stroke="white" stroke-width="8.2894"/>
</g>
<defs>
<clipPath id="clip0_27_170">
<rect width="1440" height="1024" fill="white"/>
</clipPath>
</defs>
</svg>
