<svg width="20" height="20" viewBox="0 0 20 20" fill="none" xmlns="http://www.w3.org/2000/svg">
<path d="M19.1667 8.33333C19.1667 7.8913 18.9911 7.46738 18.6786 7.15482C18.366 6.84226 17.9421 6.66667 17.5 6.66667H12.2334L13.0334 2.85833C13.05 2.775 13.0584 2.68333 13.0584 2.59167C13.0584 2.25 12.9167 1.93333 12.6917 1.70833L11.8084 0.833332L6.32504 6.31667C6.01671 6.625 5.83337 7.04167 5.83337 7.5V15.8333C5.83337 16.2754 6.00897 16.6993 6.32153 17.0118C6.63409 17.3244 7.05801 17.5 7.50004 17.5H15C15.6917 17.5 16.2834 17.0833 16.5334 16.4833L19.05 10.6083C19.125 10.4167 19.1667 10.2167 19.1667 10V8.33333ZM0.833374 17.5H4.16671V7.5H0.833374V17.5Z" fill="black"/>
</svg>
