<svg xmlns="http://www.w3.org/2000/svg" width="50" height="50" viewBox="0 0 50 50" fill="none">
  <path d="M25 8.33325C27.2102 8.33325 29.3298 9.21123 30.8926 10.774C32.4554 12.3368 33.3334 14.4564 33.3334 16.6666C33.3334 18.8767 32.4554 20.9963 30.8926 22.5591C29.3298 24.1219 27.2102 24.9999 25 24.9999C22.7899 24.9999 20.6703 24.1219 19.1075 22.5591C17.5447 20.9963 16.6667 18.8767 16.6667 16.6666C16.6667 14.4564 17.5447 12.3368 19.1075 10.774C20.6703 9.21123 22.7899 8.33325 25 8.33325ZM25 29.1666C34.2084 29.1666 41.6667 32.8958 41.6667 37.4999V41.6666H8.33337V37.4999C8.33337 32.8958 15.7917 29.1666 25 29.1666Z" fill="black"/>
</svg>