<svg width="20" height="20" viewBox="0 0 20 20" fill="none" xmlns="http://www.w3.org/2000/svg">
<g id="iconamoon:comment-fill">
<path id="Vector" fill-rule="evenodd" clip-rule="evenodd" d="M10 1.66673C5.3975 1.66673 1.66666 5.39756 1.66666 10.0001C1.66513 11.228 1.93579 12.4409 2.45916 13.5517L1.68416 17.3326C1.65657 17.4676 1.66288 17.6073 1.70253 17.7392C1.74218 17.8712 1.81393 17.9913 1.91136 18.0887C2.00879 18.1861 2.12886 18.2579 2.26081 18.2975C2.39277 18.3372 2.5325 18.3435 2.6675 18.3159L6.44833 17.5409C7.52666 18.0492 8.73166 18.3326 10 18.3326C14.6025 18.3326 18.3333 14.6026 18.3333 9.99923C18.3333 5.39756 14.6025 1.66589 10 1.66589V1.66673Z" fill="black"/>
</g>
</svg>
