<svg width="20" height="20" viewBox="0 0 20 20" fill="none" xmlns="http://www.w3.org/2000/svg">
<g id="mdi:like-outline">
<path id="Vector" d="M4.16668 7.5V17.5H0.833344V7.5H4.16668ZM7.50001 17.5C7.05798 17.5 6.63406 17.3244 6.3215 17.0118C6.00894 16.6993 5.83334 16.2754 5.83334 15.8333V7.5C5.83334 7.04167 6.01668 6.625 6.32501 6.325L11.8083 0.833333L12.6917 1.71667C12.9167 1.94167 13.0583 2.25 13.0583 2.59167L13.0333 2.85833L12.2417 6.66667H17.5C17.942 6.66667 18.366 6.84226 18.6785 7.15482C18.9911 7.46738 19.1667 7.89131 19.1667 8.33333V10C19.1667 10.2167 19.125 10.4167 19.05 10.6083L16.5333 16.4833C16.2833 17.0833 15.6917 17.5 15 17.5H7.50001ZM7.50001 15.8333H15.025L17.5 10V8.33333H10.175L11.1167 3.9L7.50001 7.525V15.8333Z" fill="black"/>
</g>
</svg>
