<svg width="40" height="40" viewBox="0 0 40 40" fill="none" xmlns="http://www.w3.org/2000/svg">
<g id="circum:facebook">
<path id="Vector" d="M31.25 7.84477C28.935 5.53077 25.9857 3.95521 22.7753 3.31732C19.5648 2.67943 16.2373 3.00787 13.2134 4.2611C10.1896 5.51433 7.60535 7.63607 5.78737 10.358C3.9694 13.08 2.99939 16.2799 3 19.5531C3 23.9432 4.74339 28.1536 7.84688 31.2587C10.9504 34.3637 15.1599 36.1092 19.55 36.1114C21.7225 36.1124 23.8741 35.6877 25.8833 34.8614C27.8862 34.016 29.708 32.7939 31.25 31.2614C32.7877 29.724 34.0075 27.8987 34.8398 25.8897C35.672 23.8808 36.1003 21.7276 36.1003 19.5531C36.1003 17.3786 35.672 15.2254 34.8398 13.2165C34.0075 11.2076 32.7877 9.38224 31.25 7.84477ZM30.0833 30.0781C27.7001 32.4716 24.5729 33.9822 21.2167 34.3614V23.4281H24.35C24.792 23.4281 25.216 23.2525 25.5285 22.94C25.8411 22.6274 26.0167 22.2035 26.0167 21.7614C26.0167 21.3194 25.8411 20.8955 25.5285 20.5829C25.216 20.2704 24.792 20.0948 24.35 20.0948H21.2167V15.5281C21.2167 15.0861 21.3923 14.6622 21.7048 14.3496C22.0174 14.037 22.4413 13.8614 22.8833 13.8614H24.8833C25.3254 13.8614 25.7493 13.6858 26.0618 13.3733C26.3744 13.0607 26.55 12.6368 26.55 12.1948C26.55 11.7527 26.3744 11.3288 26.0618 11.0163C25.7493 10.7037 25.3254 10.5281 24.8833 10.5281H22.05C20.9449 10.5281 19.8851 10.9671 19.1037 11.7485C18.3223 12.5299 17.8833 13.5897 17.8833 14.6948V20.0948H14.7667C14.3246 20.0948 13.9007 20.2704 13.5882 20.5829C13.2756 20.8955 13.1 21.3194 13.1 21.7614C13.1 22.2035 13.2756 22.6274 13.5882 22.94C13.9007 23.2525 14.3246 23.4281 14.7667 23.4281H17.8833V34.3614C14.7882 34.0083 11.8821 32.6917 9.57575 30.5976C7.26936 28.5034 5.67919 25.7376 5.02983 22.6908C4.38048 19.6439 4.70476 16.4701 5.95688 13.6175C7.20901 10.765 9.32568 8.37791 12.0079 6.79347C14.6902 5.20904 17.8024 4.50733 20.905 4.78747C24.0077 5.06761 26.9439 6.31543 29.299 8.35468C31.654 10.3939 33.3089 13.1215 34.0298 16.1522C34.7507 19.1829 34.5013 22.3635 33.3167 25.2448C32.5622 27.0501 31.4641 28.6917 30.0833 30.0781Z" fill="#353535"/>
</g>
</svg>
