<svg width="40" height="40" viewBox="0 0 40 40" fill="none" xmlns="http://www.w3.org/2000/svg">
<g id="iconoir:twitter">
<path id="Vector" d="M38.3334 5.01676C38.3334 5.01676 34.97 7.00343 33.1 7.56676C32.0963 6.41261 30.7622 5.59458 29.2784 5.2233C27.7946 4.85203 26.2325 4.94542 24.8035 5.49085C23.3745 6.03628 22.1474 7.00743 21.2883 8.27295C20.4292 9.53848 19.9795 11.0373 20 12.5668V14.2334C17.0711 14.3094 14.1688 13.6598 11.5517 12.3425C8.93459 11.0252 6.68388 9.08115 5.00002 6.68343C5.00002 6.68343 -1.66665 21.6834 13.3334 28.3501C9.9009 30.68 5.81195 31.8483 1.66669 31.6834C16.6667 40.0168 35 31.6834 35 12.5168C35 12.0534 34.9534 11.5901 34.8667 11.1334C36.5667 9.45676 38.3334 5.01676 38.3334 5.01676Z" stroke="#353535" stroke-width="1.25" stroke-linecap="round" stroke-linejoin="round"/>
</g>
</svg>
